<svg width="28" height="28" viewBox="0 0 28 28" fill="none" xmlns="http://www.w3.org/2000/svg">
<path d="M12.1664 18.6667C11.9357 18.6666 11.7102 18.5982 11.5184 18.47C11.3266 18.3418 11.1771 18.1596 11.0888 17.9464C11.0005 17.7333 10.9774 17.4987 11.0224 17.2724C11.0674 17.0462 11.1785 16.8383 11.3416 16.6752L14.0168 14L11.3416 11.3248C11.1291 11.1048 11.0115 10.8101 11.0141 10.5042C11.0168 10.1983 11.1395 9.90567 11.3558 9.68936C11.5721 9.47306 11.8647 9.35036 12.1706 9.3477C12.4765 9.34504 12.7712 9.46264 12.9913 9.67515L16.4913 13.1752C16.71 13.3939 16.8328 13.6906 16.8328 14C16.8328 14.3093 16.71 14.606 16.4913 14.8248L12.9913 18.3248C12.7725 18.5436 12.4758 18.6666 12.1664 18.6667Z" fill="#776644"/>
</svg>
