<svg width="34" height="31" viewBox="0 0 34 31" fill="none" xmlns="http://www.w3.org/2000/svg">
<path d="M24.955 19.4048C25.0094 19.3503 25.0741 19.307 25.1452 19.2775C25.2164 19.248 25.2927 19.2328 25.3698 19.2328C25.4468 19.2328 25.5231 19.248 25.5943 19.2775C25.6655 19.307 25.7301 19.3503 25.7846 19.4048C26.2767 19.897 26.9072 20.2272 27.592 20.3514C28.2768 20.4756 28.9832 20.3879 29.6168 20.0999V25.4824C29.9923 25.4824 30.3524 25.6315 30.6179 25.897C30.8834 26.1625 31.0325 26.5226 31.0325 26.8981C31.0325 27.2735 30.8834 27.6336 30.6179 27.8991C30.3524 28.1646 29.9923 28.3138 29.6168 28.3138H4.13444C3.75897 28.3138 3.39889 28.1646 3.1334 27.8991C2.8679 27.6336 2.71875 27.2735 2.71875 26.8981C2.71875 26.5226 2.8679 26.1625 3.1334 25.897C3.39889 25.6315 3.75897 25.4824 4.13444 25.4824V20.0999C5.3944 20.6733 6.93042 20.4411 7.9667 19.4062C8.02114 19.3517 8.0858 19.3085 8.15697 19.2789C8.22815 19.2494 8.30445 19.2342 8.3815 19.2342C8.45856 19.2342 8.53485 19.2494 8.60603 19.2789C8.6772 19.3085 8.74186 19.3517 8.7963 19.4062C9.11364 19.7236 9.49039 19.9754 9.90503 20.1471C10.3197 20.3189 10.7641 20.4073 11.2129 20.4073C11.6617 20.4073 12.1061 20.3189 12.5207 20.1471C12.9354 19.9754 13.3121 19.7236 13.6295 19.4062C13.6839 19.3517 13.7485 19.3085 13.8197 19.2789C13.8909 19.2494 13.9672 19.2342 14.0443 19.2342C14.1213 19.2342 14.1976 19.2494 14.2688 19.2789C14.34 19.3085 14.4046 19.3517 14.4591 19.4062C14.7764 19.7236 15.1531 19.9754 15.5678 20.1471C15.9824 20.3189 16.4268 20.4073 16.8756 20.4073C17.3244 20.4073 17.7688 20.3189 18.1835 20.1471C18.5981 19.9754 18.9749 19.7236 19.2922 19.4062C19.3466 19.3517 19.4113 19.3085 19.4825 19.2789C19.5537 19.2494 19.63 19.2342 19.707 19.2342C19.7841 19.2342 19.8604 19.2494 19.9315 19.2789C20.0027 19.3085 20.0674 19.3517 20.1218 19.4062C20.4391 19.7236 20.8159 19.9754 21.2305 20.1471C21.6452 20.3189 22.0896 20.4073 22.5384 20.4073C22.9872 20.4073 23.4316 20.3189 23.8462 20.1471C24.2609 19.9754 24.6376 19.7236 24.955 19.4062V19.4048ZM22.5384 5.66275C22.9138 5.66275 23.2739 5.8119 23.5394 6.0774C23.8049 6.34289 23.9541 6.70298 23.9541 7.07844V9.90981H25.3698C26.4961 9.90981 27.5764 10.3573 28.3729 11.1538C29.1694 11.9502 29.6168 13.0305 29.6168 14.1569V16.4022L28.6159 17.4031C28.5615 17.4576 28.4968 17.5008 28.4257 17.5304C28.3545 17.5599 28.2782 17.5751 28.2011 17.5751C28.1241 17.5751 28.0478 17.5599 27.9766 17.5304C27.9054 17.5008 27.8408 17.4576 27.7863 17.4031C27.469 17.0857 27.0922 16.8339 26.6776 16.6622C26.263 16.4904 25.8186 16.402 25.3698 16.402C24.921 16.402 24.4765 16.4904 24.0619 16.6622C23.6473 16.8339 23.2705 17.0857 22.9532 17.4031C22.8987 17.4576 22.8341 17.5008 22.7629 17.5304C22.6917 17.5599 22.6154 17.5751 22.5384 17.5751C22.4613 17.5751 22.385 17.5599 22.3139 17.5304C22.2427 17.5008 22.178 17.4576 22.1236 17.4031C21.8062 17.0857 21.4295 16.8339 21.0149 16.6622C20.6002 16.4904 20.1558 16.402 19.707 16.402C19.2582 16.402 18.8138 16.4904 18.3992 16.6622C17.9845 16.8339 17.6078 17.0857 17.2904 17.4031C17.236 17.4576 17.1713 17.5008 17.1002 17.5304C17.029 17.5599 16.9527 17.5751 16.8756 17.5751C16.7986 17.5751 16.7223 17.5599 16.6511 17.5304C16.5799 17.5008 16.5153 17.4576 16.4608 17.4031C16.1435 17.0857 15.7667 16.8339 15.3521 16.6622C14.9375 16.4904 14.4931 16.402 14.0443 16.402C13.5954 16.402 13.151 16.4904 12.7364 16.6622C12.3218 16.8339 11.945 17.0857 11.6277 17.4031C11.5732 17.4576 11.5086 17.5008 11.4374 17.5304C11.3662 17.5599 11.2899 17.5751 11.2129 17.5751C11.1358 17.5751 11.0595 17.5599 10.9883 17.5304C10.9172 17.5008 10.8525 17.4576 10.7981 17.4031C10.4807 17.0857 10.104 16.8339 9.68935 16.6622C9.27471 16.4904 8.83031 16.402 8.3815 16.402C7.9327 16.402 7.48829 16.4904 7.07365 16.6622C6.65901 16.8339 6.28227 17.0857 5.96492 17.4031C5.91049 17.4576 5.84583 17.5008 5.77465 17.5304C5.70348 17.5599 5.62718 17.5751 5.55013 17.5751C5.47307 17.5751 5.39677 17.5599 5.3256 17.5304C5.25442 17.5008 5.18977 17.4576 5.13533 17.4031L4.13444 16.4022V14.1569C4.13444 13.0305 4.5819 11.9502 5.37837 11.1538C6.17485 10.3573 7.25511 9.90981 8.3815 9.90981H9.79719V7.07844C9.79719 6.70298 9.94634 6.34289 10.2118 6.0774C10.4773 5.8119 10.8374 5.66275 11.2129 5.66275C11.5883 5.66275 11.9484 5.8119 12.2139 6.0774C12.4794 6.34289 12.6286 6.70298 12.6286 7.07844V9.90981H15.4599V7.07844C15.4599 6.70298 15.6091 6.34289 15.8746 6.0774C16.1401 5.8119 16.5002 5.66275 16.8756 5.66275C17.2511 5.66275 17.6112 5.8119 17.8767 6.0774C18.1422 6.34289 18.2913 6.70298 18.2913 7.07844V9.90981H21.1227V7.07844C21.1227 6.70298 21.2718 6.34289 21.5373 6.0774C21.8028 5.8119 22.1629 5.66275 22.5384 5.66275ZM17.5835 0C17.1319 0.903209 17.5438 1.48647 17.902 1.99612C18.1059 2.2835 18.2913 2.54824 18.2913 2.83138C18.2913 3.20684 18.1422 3.56692 17.8767 3.83242C17.6112 4.09791 17.2511 4.24706 16.8756 4.24706C16.5002 4.24706 16.1401 4.09791 15.8746 3.83242C15.6091 3.56692 15.4599 3.20684 15.4599 2.83138C15.4599 2.04992 16.1678 0.707844 17.5835 0ZM11.9207 0C11.4691 0.903209 11.8811 1.48647 12.2393 1.99612C12.4431 2.2835 12.6286 2.54824 12.6286 2.83138C12.6286 3.20684 12.4794 3.56692 12.2139 3.83242C11.9484 4.09791 11.5883 4.24706 11.2129 4.24706C10.8374 4.24706 10.4773 4.09791 10.2118 3.83242C9.94634 3.56692 9.79719 3.20684 9.79719 2.83138C9.79719 2.04992 10.505 0.707844 11.9207 0ZM23.2462 0C22.7946 0.903209 23.2066 1.48647 23.5648 1.99612C23.7686 2.2835 23.9541 2.54824 23.9541 2.83138C23.9541 3.20684 23.8049 3.56692 23.5394 3.83242C23.2739 4.09791 22.9138 4.24706 22.5384 4.24706C22.1629 4.24706 21.8028 4.09791 21.5373 3.83242C21.2718 3.56692 21.1227 3.20684 21.1227 2.83138C21.1227 2.04992 21.8305 0.707844 23.2462 0Z" fill="#DB9495"/>
</svg>
