<svg width="21" height="21" viewBox="0 0 21 21" fill="none" xmlns="http://www.w3.org/2000/svg">
<path fill-rule="evenodd" clip-rule="evenodd" d="M18.8523 4.47261C19.0983 4.71874 19.2366 5.05252 19.2366 5.40055C19.2366 5.74858 19.0983 6.08235 18.8523 6.32848L9.01466 16.1661C8.88465 16.2961 8.73031 16.3993 8.56043 16.4697C8.39055 16.5401 8.20848 16.5763 8.0246 16.5763C7.84072 16.5763 7.65864 16.5401 7.48877 16.4697C7.31889 16.3993 7.16454 16.2961 7.03453 16.1661L2.14678 11.2792C2.02143 11.1582 1.92144 11.0133 1.85265 10.8532C1.78386 10.6931 1.74766 10.5208 1.74614 10.3466C1.74463 10.1723 1.77784 9.99947 1.84383 9.83817C1.90982 9.67687 2.00728 9.53033 2.13052 9.40709C2.25375 9.28386 2.40029 9.1864 2.56159 9.12041C2.7229 9.05441 2.89573 9.0212 3.07 9.02272C3.24427 9.02423 3.4165 9.06044 3.57663 9.12923C3.73676 9.19801 3.88159 9.298 4.00266 9.42336L8.02416 13.4449L16.9955 4.47261C17.1174 4.35064 17.2622 4.25389 17.4214 4.18788C17.5807 4.12187 17.7515 4.08789 17.9239 4.08789C18.0963 4.08789 18.2671 4.12187 18.4264 4.18788C18.5857 4.25389 18.7304 4.35064 18.8523 4.47261Z" fill="white"/>
</svg>
