<svg width="32" height="32" viewBox="0 0 32 32" fill="none" xmlns="http://www.w3.org/2000/svg">
<path d="M26.6673 23.3337C27.1809 23.3339 27.6748 23.5318 28.0465 23.8862C28.4182 24.2407 28.6393 24.7245 28.664 25.2376C28.6887 25.7506 28.5151 26.2534 28.1791 26.6419C27.8431 27.0304 27.3705 27.2748 26.8593 27.3243L26.6673 27.3337H5.33398C4.82036 27.3334 4.32652 27.1356 3.9548 26.7811C3.58308 26.4267 3.36197 25.9428 3.33729 25.4298C3.3126 24.9167 3.48624 24.4139 3.82222 24.0254C4.1582 23.6369 4.63076 23.3926 5.14198 23.343L5.33398 23.3337H26.6673ZM26.6673 14.0003C27.1977 14.0003 27.7065 14.211 28.0815 14.5861C28.4566 14.9612 28.6673 15.4699 28.6673 16.0003C28.6673 16.5308 28.4566 17.0395 28.0815 17.4145C27.7065 17.7896 27.1977 18.0003 26.6673 18.0003H5.33398C4.80355 18.0003 4.29484 17.7896 3.91977 17.4145C3.5447 17.0395 3.33398 16.5308 3.33398 16.0003C3.33398 15.4699 3.5447 14.9612 3.91977 14.5861C4.29484 14.211 4.80355 14.0003 5.33398 14.0003H26.6673ZM26.6673 4.66699C27.1977 4.66699 27.7065 4.87771 28.0815 5.25278C28.4566 5.62785 28.6673 6.13656 28.6673 6.66699C28.6673 7.19743 28.4566 7.70613 28.0815 8.08121C27.7065 8.45628 27.1977 8.66699 26.6673 8.66699H5.33398C4.80355 8.66699 4.29484 8.45628 3.91977 8.08121C3.5447 7.70613 3.33398 7.19743 3.33398 6.66699C3.33398 6.13656 3.5447 5.62785 3.91977 5.25278C4.29484 4.87771 4.80355 4.66699 5.33398 4.66699H26.6673Z" fill="#827157"/>
</svg>
