<svg width="38" height="38" viewBox="0 0 38 38" fill="none" xmlns="http://www.w3.org/2000/svg">
<path d="M13.4169 12.8687L17.4763 4.69366C17.5944 4.45707 17.7762 4.25808 18.0011 4.119C18.226 3.97992 18.4852 3.90625 18.7497 3.90625C19.0142 3.90625 19.2734 3.97992 19.4983 4.119C19.7232 4.25808 19.905 4.45707 20.0231 4.69366L24.0825 12.8687L33.1575 14.1874C33.4193 14.2237 33.6656 14.3329 33.8682 14.5024C34.0709 14.672 34.2219 14.8951 34.3038 15.1464C34.3858 15.3976 34.3955 15.6668 34.3317 15.9233C34.268 16.1797 34.1335 16.4131 33.9435 16.5968L27.3778 22.9562L28.9278 31.9405C29.1263 33.0937 27.9075 33.9718 26.8653 33.428L18.7497 29.1843L10.6325 33.428C9.59189 33.9733 8.37314 33.0937 8.57158 31.939L10.1216 22.9546L3.55595 16.5952C3.36687 16.4114 3.23314 16.1783 3.16996 15.9223C3.10678 15.6663 3.11669 15.3977 3.19856 15.147C3.28043 14.8964 3.43098 14.6737 3.63309 14.5043C3.8352 14.335 4.08077 14.2257 4.34189 14.189L13.4169 12.8687Z" fill="#EFB700" stroke="#EFB700" stroke-width="1.125" stroke-linecap="round" stroke-linejoin="round"/>
</svg>
