<svg width="28" height="28" viewBox="0 0 28 28" fill="none" xmlns="http://www.w3.org/2000/svg">
<path d="M9.04142 18.6667C8.81071 18.6666 8.58519 18.5982 8.39338 18.47C8.20157 18.3418 8.05208 18.1596 7.96379 17.9464C7.87551 17.7333 7.85241 17.4987 7.8974 17.2724C7.9424 17.0462 8.05347 16.8383 8.21659 16.6752L10.8918 14L8.21659 11.3248C8.00407 11.1048 7.88647 10.8101 7.88913 10.5042C7.89179 10.1983 8.01449 9.90567 8.2308 9.68936C8.44711 9.47306 8.73972 9.35036 9.04562 9.3477C9.35151 9.34504 9.64622 9.46264 9.86625 9.67515L13.3663 13.1752C13.585 13.3939 13.7078 13.6906 13.7078 14C13.7078 14.3093 13.585 14.606 13.3663 14.8248L9.86625 18.3248C9.64751 18.5436 9.35081 18.6666 9.04142 18.6667ZM15.4581 18.6667C15.2274 18.6666 15.0019 18.5982 14.81 18.47C14.6182 18.3418 14.4687 18.1596 14.3805 17.9464C14.2922 17.7333 14.2691 17.4987 14.3141 17.2724C14.3591 17.0462 14.4701 16.8383 14.6333 16.6752L17.3084 14L14.6333 11.3248C14.4207 11.1048 14.3031 10.8101 14.3058 10.5042C14.3085 10.1983 14.4312 9.90567 14.6475 9.68936C14.8638 9.47306 15.1564 9.35036 15.4623 9.3477C15.7682 9.34504 16.0629 9.46264 16.2829 9.67515L19.7829 13.1752C20.0016 13.3939 20.1245 13.6906 20.1245 14C20.1245 14.3093 20.0016 14.606 19.7829 14.8248L16.2829 18.3248C16.0642 18.5436 15.7675 18.6666 15.4581 18.6667Z" fill="#776644"/>
</svg>
