<svg width="40" height="40" viewBox="0 0 40 40" fill="none" xmlns="http://www.w3.org/2000/svg">
<path d="M31.2934 8.66875L31.9996 9.3375V6C31.9996 4.89375 32.8934 4 33.9996 4C35.1059 4 35.9996 4.89375 35.9996 6V14C35.9996 15.1063 35.1059 16 33.9996 16H25.9996C24.8934 16 23.9996 15.1063 23.9996 14C23.9996 12.8938 24.8934 12 25.9996 12H28.9934L28.5184 11.55L28.4809 11.5125C23.7934 6.825 16.1996 6.825 11.5121 11.5125C6.82461 16.2 6.82461 23.7937 11.5121 28.4812C16.1996 33.1687 23.7934 33.1687 28.4809 28.4812C28.9934 27.9687 29.4496 27.425 29.8496 26.85C30.4809 25.9437 31.7309 25.725 32.6371 26.3562C33.5434 26.9875 33.7621 28.2375 33.1309 29.1437C32.5996 29.9062 31.9934 30.6312 31.3121 31.3125C25.0621 37.5625 14.9309 37.5625 8.68711 31.3125C2.44336 25.0625 2.43711 14.9375 8.68711 8.6875C14.9309 2.44376 25.0434 2.43751 31.2934 8.66875Z" fill="white"/>
</svg>
