<svg width="24" height="24" viewBox="0 0 24 24" fill="none" xmlns="http://www.w3.org/2000/svg">
<path d="M7.99984 18.9998C7.71651 18.9998 7.47918 18.9038 7.28784 18.7118C7.09651 18.5198 7.00051 18.2825 6.99984 17.9998C6.99918 17.7171 7.09518 17.4798 7.28784 17.2878C7.48051 17.0958 7.71784 16.9998 7.99984 16.9998H14.0998C15.1498 16.9998 16.0625 16.6665 16.8378 15.9998C17.6132 15.3331 18.0005 14.4998 17.9998 13.4998C17.9992 12.4998 17.6118 11.6665 16.8378 10.9998C16.0638 10.3331 15.1512 9.9998 14.0998 9.9998H7.79984L9.69984 11.8998C9.88318 12.0831 9.97484 12.3165 9.97484 12.5998C9.97484 12.8831 9.88318 13.1165 9.69984 13.2998C9.51651 13.4831 9.28318 13.5748 8.99984 13.5748C8.71651 13.5748 8.48318 13.4831 8.29984 13.2998L4.69984 9.6998C4.59984 9.5998 4.52884 9.49147 4.48684 9.3748C4.44484 9.25814 4.42451 9.13314 4.42584 8.9998C4.42718 8.86647 4.44818 8.74147 4.48884 8.6248C4.52951 8.50814 4.59984 8.3998 4.69984 8.2998L8.29984 4.6998C8.48318 4.51647 8.71651 4.4248 8.99984 4.4248C9.28318 4.4248 9.51651 4.51647 9.69984 4.6998C9.88318 4.88314 9.97484 5.11647 9.97484 5.3998C9.97484 5.68314 9.88318 5.91647 9.69984 6.0998L7.79984 7.9998H14.0998C15.7165 7.9998 17.1042 8.5248 18.2628 9.5748C19.4215 10.6248 20.0005 11.9331 19.9998 13.4998C19.9992 15.0665 19.4202 16.3748 18.2628 17.4248C17.1055 18.4748 15.7178 18.9998 14.0998 18.9998H7.99984Z" fill="#776644"/>
</svg>
